<?xml version="1.0" encoding="utf-8"?>
<svg id="icon" class="icon" version="1.1" xmlns="http://www.w3.org/2000/svg" xmlns:xlink="http://www.w3.org/1999/xlink">
    <defs>
        <!-- Add this in below style to apply size for all icons: #icon {width: 150px} -->
        <style>
            rect, line { shape-rendering: crispEdges; }
            svg .icon { display: none }
            svg .icon:target { display: inline; }
        </style>
    </defs>
    <svg viewBox="0 0 16 16" id="icon_chart" class="icon">
	    <g>
            <rect x="6" width="4" height="16"/>
            <rect x="12" y="4" width="4" height="12"/>
            <rect x="0" y="8" width="4" height="8"/>
	    </g>
	</svg>
    <svg viewBox="0 0 16 16" id="icon_plus" class="icon">
	    <g>
            <mask id="m" x="0" y="0" width="1" height="1">
            <circle cx="8" cy="8" r="8" fill="white"/>
            <line x1="8" y1="3" x2="8" y2="13" stroke="black" stroke-width="2"/>
            <line x1="3" y1="8" x2="13" y2="8" stroke="black" stroke-width="2"/>
            </mask>
            <rect width="16" height="16" mask="url(#m)"/>
	    </g>
	</svg>
    <svg viewBox="0 0 512 512" id="icon_exclamation" class="icon">
        <path d="M256 512c141.4 0 256-114.6 256-256S397.4 0 256 0S0 114.6 0 256S114.6 512 256 512zm0-384c13.3 0 24 10.7 24 24V264c0 13.3-10.7 24-24 24s-24-10.7-24-24V152c0-13.3 10.7-24 24-24zm32 224c0 17.7-14.3 32-32 32s-32-14.3-32-32s14.3-32 32-32s32 14.3 32 32z"/>
    </svg>
    <svg viewBox="0 0 256 512" id="icon_triangle_right" class="icon">
        <path d="M118.6 105.4l128 127.1C252.9 239.6 256 247.8 256 255.1s-3.125 16.38-9.375 22.63l-128 127.1c-9.156 9.156-22.91 11.9-34.88 6.943S64 396.9 64 383.1V128c0-12.94 7.781-24.62 19.75-29.58S109.5 96.23 118.6 105.4z"/>
    </svg>
    <svg viewBox="0 0 256 512" id="icon_triangle_left" class="icon">
        <path d="M137.4 406.6l-128-127.1C3.125 272.4 0 264.2 0 255.1s3.125-16.38 9.375-22.63l128-127.1c9.156-9.156 22.91-11.9 34.88-6.943S192 115.1 192 128v255.1c0 12.94-7.781 24.62-19.75 29.58S146.5 415.8 137.4 406.6z"/>
    </svg>

    <svg viewBox="0 0 448 512" id="icon_arrow_left" class="icon">
        <path d="M447.1 256C447.1 273.7 433.7 288 416 288H109.3l105.4 105.4c12.5 12.5 12.5 32.75 0 45.25C208.4 444.9 200.2 448 192 448s-16.38-3.125-22.62-9.375l-160-160c-12.5-12.5-12.5-32.75 0-45.25l160-160c12.5-12.5 32.75-12.5 45.25 0s12.5 32.75 0 45.25L109.3 224H416C433.7 224 447.1 238.3 447.1 256z"/>
    </svg>
    <svg viewBox="0 0 448 512" id="icon_arrow_right" class="icon">
        <path d="M438.6 278.6l-160 160C272.4 444.9 264.2 448 256 448s-16.38-3.125-22.62-9.375c-12.5-12.5-12.5-32.75 0-45.25L338.8 288H32C14.33 288 .0016 273.7 .0016 256S14.33 224 32 224h306.8l-105.4-105.4c-12.5-12.5-12.5-32.75 0-45.25s32.75-12.5 45.25 0l160 160C451.1 245.9 451.1 266.1 438.6 278.6z"/>
    </svg>
    <svg viewBox="0 0 752 752" id="icon_pickup_icon1" class="icon">
        <g>
            <path d="m494.4 223.98h-88.562c-6.6289 0-11.84 5.2109-11.84 11.84v53.988h33.625c10.891 0 21.785 4.7344 29.363 12.785 5.2109 5.6836 8.9961 12.785 9.9453 20.363l27.469 0.003907c6.6289 0 11.84-5.2109 11.84-11.84l-0.003906-75.301c0-6.6289-5.207-11.84-11.836-11.84z"/>
            <path d="m427.62 307.33h-44.988s-43.098-34.57-46.883-37.414c-3.7891-2.8398-10.891-6.1562-17.996-6.1562h-43.57c-15.629 0-28.414 12.785-28.414 28.414v100.87c0 17.523 4.7344 35.047 14.207 49.727 10.418 16.574 15.156 35.992 13.734 55.41l-4.2617 74.352c-0.94531 15.156 11.367 28.414 26.52 28.414 13.734 0 25.102-10.418 26.52-24.152l23.207-241.05 14.68 11.84c3.7891 3.3164 8.9961 5.2109 14.207 5.2109h52.094c11.84 0 22.73-8.9961 23.207-21.312 0.94531-13.262-9.4727-24.152-22.262-24.152z"/>
            <path d="m346.16 200.78c0 27.461-22.262 49.727-49.723 49.727-27.465 0-49.727-22.266-49.727-49.727 0-27.465 22.262-49.727 49.727-49.727 27.461 0 49.723 22.262 49.723 49.727"/>
        </g>
    </svg>
    <svg viewBox="0 0 640 512" id="icon_pickup_icon2" class="icon">
        <g>
            <path d="M256 48C256 21.49 277.5 0 304 0H592C618.5 0 640 21.49 640 48V464C640 490.5 618.5 512 592 512H381.3C383 506.1 384 501.6 384 496V253.3C402.6 246.7 416 228.9 416 208V176C416 149.5 394.5 128 368 128H256V48zM571.3 347.3C577.6 341.1 577.6 330.9 571.3 324.7L507.3 260.7C501.1 254.4 490.9 254.4 484.7 260.7L420.7 324.7C414.4 330.9 414.4 341.1 420.7 347.3C426.9 353.6 437.1 353.6 443.3 347.3L480 310.6V432C480 440.8 487.2 448 496 448C504.8 448 512 440.8 512 432V310.6L548.7 347.3C554.9 353.6 565.1 353.6 571.3 347.3H571.3zM0 176C0 167.2 7.164 160 16 160H368C376.8 160 384 167.2 384 176V208C384 216.8 376.8 224 368 224H16C7.164 224 0 216.8 0 208V176zM352 480C352 497.7 337.7 512 320 512H64C46.33 512 32 497.7 32 480V256H352V480zM144 320C135.2 320 128 327.2 128 336C128 344.8 135.2 352 144 352H240C248.8 352 256 344.8 256 336C256 327.2 248.8 320 240 320H144z"/>
        </g>
    </svg>
    <svg viewBox="0 0 752 752" id="icon_motorbike_filled" class="icon">
        <defs>
            <clipPath id="a">
                <path d="m139.21 191h473.58v371h-473.58z"/>
            </clipPath>
        </defs>
        <g clip-path="url(#a)">
            <path d="m612.61 460.39c-6.4023-40.438-35.332-63.637-79.363-63.637-1.6641 0-3.293 0.035157-4.8828 0.10938 2.0156-29.848-4.043-59.688-17.535-86.391l-10.582-20.902c9.5039-14.48 13.508-31.887 11.285-49.062-3.8125-34.703-24.863-46.578-27.23-47.84-2.1133-1.0977-4.4609-1.6719-6.8438-1.6641-13.793 0.37109-27.23 4.4297-38.926 11.75 13.496 2.3633 24.895 11.355 30.332 23.93 5.4336 12.578 4.1758 27.043-3.3516 38.488-7.5273 11.449-20.309 18.336-34.008 18.328-0.89844 0-1.7773-0.078125-2.6602-0.13672 1.6016 2.4844 3.0859 4.5625 4.25 6.0898l17.5 70.371v0.003906c0.50391 14.23-3.0898 28.309-10.359 40.551l-26.305 44.621h-41.957l-22.164-63.453h18.797c3.9258 0 7.6914-1.5586 10.465-4.3359 2.7773-2.7734 4.3359-6.5391 4.3359-10.465v-11.098c0-7.8516-3.1211-15.379-8.6719-20.93-5.5508-5.5508-13.078-8.668-20.93-8.668h-59.195v-88.797c0-5.8867-2.3398-11.535-6.5039-15.699-4.1602-4.1602-9.8086-6.5-15.695-6.5h-111c-5.8867 0-11.535 2.3398-15.695 6.5-4.1641 4.1641-6.5039 9.8125-6.5039 15.699v107.3-0.003907c0 1.9648 0.78125 3.8477 2.168 5.2344 1.3867 1.3867 3.2695 2.168 5.2305 2.168h140.59c1.9648 0 3.8477-0.78125 5.2344-2.168 1.3867-1.3867 2.168-3.2695 2.168-5.2344v-3.6992h59.195c3.9258 0 7.6914 1.5586 10.465 4.3359 2.7773 2.7773 4.3359 6.5391 4.3359 10.465v11.098h-229.39c0 3.9258 1.5586 7.6914 4.332 10.469 2.7773 2.7734 6.543 4.332 10.469 4.332h14.242c-1.9258 12.543-14.652 23.457-21.57 27.75-2.7617 1.5742-4.9453 3.9961-6.2227 6.9102-1.2812 2.9102-1.5898 6.1562-0.87891 9.2578 0 0.035156 0.035157 0.035156 0.035157 0.074219-0.26953 0.72266-0.40625 1.4844-0.40625 2.2578v46.617c0.023437 10.762 3.5391 21.223 10.016 29.816 6.4766 8.5938 15.57 14.852 25.91 17.836 4.6484 14.918 15.375 27.176 29.539 33.762 14.168 6.5859 30.457 6.8828 44.855 0.82031s25.566-17.922 30.754-32.656h209.93c5.457 15.461 17.477 27.719 32.832 33.477 15.355 5.7578 32.469 4.4258 46.746-3.6328 14.281-8.0625 24.262-22.027 27.266-38.148 2.6445-14.086-0.32812-28.648-8.2773-40.57 2.1836 0.70312 3.5156 1.2227 3.5508 1.2578 2.4336 0.99609 5.0898 1.332 7.6992 0.96484 2.6055-0.36328 5.0664-1.4102 7.1367-3.0391 2.0586-1.625 3.6484-3.7734 4.6055-6.2148 0.95703-2.4453 1.2422-5.1016 0.83203-7.6953zm-380.9-199.09c-0.011719 4.082-3.3164 7.3906-7.3984 7.4023h-14.801c-4.082-0.011719-7.3867-3.3203-7.3984-7.4023v-29.598h29.598zm-3.6992 284.89v0.003906c-7.4922-0.011718-14.832-2.0898-21.219-6.0078-6.3828-3.918-11.562-9.5195-14.965-16.191h72.367c-3.4023 6.6719-8.582 12.273-14.969 16.191-6.3828 3.918-13.727 5.9961-21.215 6.0078zm-39.293-36.996c-9.2109-0.023437-18.035-3.6953-24.539-10.215-6.5078-6.5195-10.16-15.352-10.164-24.562l3.6992-37.926c14.391-3.1758 29.07-4.8633 43.805-5.0312 27.785 0 48.949 7.4727 62.934 22.199 20.977 22.09 19.941 54.461 19.906 54.758 0 0.25781 0.035156 0.51953 0.035156 0.77734zm353.78 37c-7.4922-0.011718-14.832-2.0898-21.219-6.0078-6.3828-3.918-11.562-9.5195-14.969-16.191h2.8516c2.8359-0.003906 5.6133-0.82812 7.9961-2.3672 2.3828-1.543 4.2695-3.7422 5.4336-6.3281l2.9219 3.6992c4.9297 6.2148 12.801 9.3242 20.648 8.1602 7.8438-1.1641 14.473-6.4258 17.387-13.801 2.918-7.375 1.6758-15.746-3.2578-21.961l-14.504-18.277h0.003906c5.1719-1.9062 10.656-2.8203 16.168-2.6992 0.40625 0 0.77734 0.035156 1.1484 0.035156h-0.003907c10.344 6.0664 17.484 16.391 19.508 28.211 2.0234 11.816-1.2695 23.93-9.0039 33.09-7.7344 9.1641-19.121 14.449-31.109 14.438z"/>
        </g>
        <path d="m431.5 268.71c-6.8711 0-13.457-2.7305-18.312-7.5859-4.8594-4.8594-7.5859-11.445-7.5859-18.312 0-6.8711 2.7266-13.457 7.5859-18.316 4.8555-4.8555 11.441-7.5859 18.312-7.5859 6.8672 0 13.457 2.7305 18.312 7.5859 4.8555 4.8594 7.5859 11.445 7.5859 18.316-0.007813 6.8633-2.7383 13.449-7.5938 18.305-4.8555 4.8555-11.438 7.5859-18.305 7.5938zm0-37c-4.4883 0-8.5391 2.7031-10.254 6.8516-1.7188 4.1484-0.76953 8.9219 2.4062 12.098 3.1719 3.1719 7.9453 4.125 12.094 2.4062 4.1484-1.7188 6.8516-5.7656 6.8516-10.254-0.003906-6.1289-4.9727-11.094-11.098-11.102z"/>
    </svg>
    <svg viewBox="0 0 752 752" id="icon_motorbike_line" class="icon">
        <defs>
            <clipPath id="a">
                <path d="m139.21 191h473.58v370h-473.58z"/>
            </clipPath>
        </defs>
        <g clip-path="url(#a)">
            <path d="m510.81 310.49-10.547-20.902c9.4805-14.492 13.477-31.891 11.273-49.066-3.8086-34.73-24.863-46.605-27.25-47.848-2.1094-1.0938-4.4492-1.668-6.8203-1.668-1.6055 0-37.203 0.33203-54.215 27.27-6.5117 2.1797-11.887 6.8594-14.941 13.008-3.0586 6.1445-3.5469 13.254-1.3555 19.762 2.1875 6.5039 6.875 11.875 13.027 14.922 3.2344 8.4102 7.6523 16.316 13.121 23.48l17.5 70.387c0.48438 14.23-3.1172 28.305-10.375 40.559l-26.305 44.613h-41.965l-22.152-63.457h18.797c3.9258 0 7.6914-1.5586 10.465-4.3359 2.7773-2.7734 4.3359-6.5391 4.3359-10.465v-11.098c-0.007813-7.8477-3.1289-15.371-8.6797-20.918-5.5469-5.5508-13.07-8.6719-20.918-8.6797h-59.199v-88.797c-0.007813-5.8867-2.3477-11.527-6.5078-15.691-4.1641-4.1602-9.8047-6.5-15.691-6.5078h-111c-5.8828 0.007812-11.527 2.3477-15.688 6.5078-4.1641 4.1641-6.5039 9.8047-6.5117 15.691v129.5-0.003906c0 3.9258 1.5586 7.6914 4.3359 10.465 2.7734 2.7773 6.5391 4.3359 10.465 4.3359h14.242c-1.9336 12.535-14.664 23.465-21.562 27.754-2.7656 1.5742-4.9492 3.9961-6.2305 6.9062-1.2773 2.9141-1.5859 6.1641-0.875 9.2617l0.019531 0.054688c-0.25 0.73438-0.38281 1.5-0.39453 2.2734v46.598c0.011718 10.77 3.5234 21.238 10.008 29.836 6.4805 8.5938 15.582 14.852 25.93 17.82 4.6406 14.918 15.363 27.184 29.527 33.773 14.164 6.5859 30.453 6.8867 44.852 0.82422 14.398-6.0586 25.566-17.922 30.754-32.656h209.95-0.003906c5.8594 16.59 19.242 29.418 36.066 34.566 16.82 5.1523 35.09 2.0156 49.234-8.4492 14.141-10.469 22.48-27.023 22.469-44.617-0.007813-10.816-3.207-21.391-9.2031-30.395 2.1914 0.72656 3.5 1.2539 3.5391 1.2695 3.2578 1.3438 6.8828 1.4805 10.23 0.39062 3.3477-1.0898 6.1953-3.3359 8.0391-6.3359s2.5547-6.5586 2.0156-10.035c-6.3945-40.434-35.32-63.625-79.367-63.629-1.6797 0-3.3047 0.035156-4.8672 0.09375 1.9961-29.844-4.0742-59.672-17.57-86.363zm-79.309-56.586c-4.4883 0-8.5352-2.7031-10.254-6.8516-1.7188-4.1484-0.76953-8.9219 2.4062-12.098 3.1758-3.1719 7.9492-4.1211 12.094-2.4062 4.1484 1.7188 6.8555 5.7656 6.8555 10.258-0.007812 6.125-4.9727 11.09-11.102 11.098zm-136.89 86.945h59.199c3.9219 0 7.6875 1.5586 10.465 4.3359 2.7734 2.7773 4.332 6.5391 4.332 10.465v11.098h-73.996zm-92.496-109.14h29.598v29.598c0 1.9648-0.77734 3.8477-2.1641 5.2344-1.3906 1.3867-3.2734 2.168-5.2344 2.168h-14.801c-4.0859 0-7.3984-3.3125-7.3984-7.4023zm-48.098 135.04v-129.5 0.003906c0-4.0859 3.3125-7.4023 7.3984-7.4023h26.086c-0.10156 0.61328-0.16406 1.2305-0.1875 1.8516v29.598c0.007812 5.8867 2.3477 11.531 6.5117 15.691 4.1602 4.1602 9.8047 6.5039 15.688 6.5078h14.801c5.8867-0.003906 11.527-2.3477 15.691-6.5078 4.1602-4.1602 6.5-9.8047 6.5078-15.691v-29.598c-0.023437-0.62109-0.085937-1.2383-0.1875-1.8516h26.086c1.9648 0 3.8438 0.78125 5.2344 2.168 1.3867 1.3906 2.1641 3.2695 2.1641 5.2344v129.5zm73.996 179.44v0.003906c-7.4883-0.011718-14.828-2.0898-21.211-6.0078s-11.559-9.5195-14.957-16.191h72.34c-3.4023 6.6719-8.5781 12.273-14.961 16.191s-13.723 5.9961-21.211 6.0078zm-39.289-36.996c-9.2148-0.023437-18.043-3.6992-24.551-10.223-6.5039-6.5234-10.156-15.359-10.156-24.574v-37.434c1.2539 0 2.5-0.16016 3.7148-0.47656 14.391-3.1719 29.07-4.8594 43.809-5.0391 27.762 0 48.934 7.4766 62.93 22.215 20.98 22.102 19.914 54.441 19.898 54.762-0.011719 0.25781 0.039063 0.51172 0.039063 0.76953zm353.78 37c-7.4883-0.011718-14.828-2.0898-21.211-6.0078-6.3828-3.918-11.559-9.5195-14.961-16.191h2.8359c2.8359-0.003906 5.6133-0.82812 7.9922-2.3672 2.3828-1.5391 4.2695-3.7344 5.4375-6.3203l2.9219 3.6797c4.9414 6.1797 12.797 9.2656 20.621 8.0938 7.8242-1.1719 14.438-6.418 17.352-13.773 2.918-7.3555 1.6992-15.707-3.1992-21.922l-14.496-18.266c5.1758-1.9023 10.668-2.8125 16.184-2.6836 0.38281 0 0.76172 0.019531 1.1445 0.027344 10.34 6.0703 17.473 16.395 19.496 28.211 2.0195 11.816-1.2773 23.926-9.0117 33.086-7.7344 9.1602-19.117 14.441-31.105 14.434zm-15.93-49.68c1.4297-5.3164 3.8984-10.297 7.2656-14.652l14.859 18.723h0.003906c2.5273 3.2031 1.9883 7.8477-1.207 10.383-3.1953 2.5391-7.8438 2.0078-10.387-1.1797zm6.6797-84.953c23.219 0 57.859 7.5664 64.75 51.141l-0.003906-0.003906c-11.5-4.4453-23.691-6.8359-36.02-7.0586-22.703 0-48.523 9.9648-52.812 53.555h-210.02s4.8164-92.547-97.609-92.547v0.003906c-15.965 0.17188-31.867 2.0078-47.449 5.4766 1.5664-0.95312 26.457-16.191 29.039-39.934l151.32 0.24609 27.004 77.363 60.934 0.003906 30.594-51.898c8.9688-15.156 13.262-32.621 12.348-50.207l-18.645-74.988c-3.75-4.5-6.9922-9.4023-9.6719-14.609 7.1875-1.5625 13.371-6.1016 17.008-12.492s4.3828-14.023 2.0547-21c-2.3281-6.9727-7.5117-12.629-14.258-15.555 14.176-13.195 35.656-13.25 35.656-13.25s16.305 8.4648 19.359 36.336c3.3125 30.02-14.047 45.648-14.047 45.648l14.812 29.352c13.27 26.246 18.641 55.781 15.465 85.02l-1.2734 11.535c7.0625-1.457 14.254-2.1719 21.465-2.1367z"/>
        </g>
    </svg>
    <svg viewBox="0 0 448 512" id="icon_calendar_checked" class="icon">
        <path d="M216.1 408.1C207.6 418.3 192.4 418.3 183 408.1L119 344.1C109.7 335.6 109.7 320.4 119 311C128.4 301.7 143.6 301.7 152.1 311L200 358.1L295 263C304.4 253.7 319.6 253.7 328.1 263C338.3 272.4 338.3 287.6 328.1 296.1L216.1 408.1zM128 0C141.3 0 152 10.75 152 24V64H296V24C296 10.75 306.7 0 320 0C333.3 0 344 10.75 344 24V64H384C419.3 64 448 92.65 448 128V448C448 483.3 419.3 512 384 512H64C28.65 512 0 483.3 0 448V128C0 92.65 28.65 64 64 64H104V24C104 10.75 114.7 0 128 0zM400 192H48V448C48 456.8 55.16 464 64 464H384C392.8 464 400 456.8 400 448V192z"/>
    </svg>
    <svg viewBox="0 0 448 512" id="icon_whatsapp" class="icon">
        <path d="M380.9 97.1C339 55.1 283.2 32 223.9 32c-122.4 0-222 99.6-222 222 0 39.1 10.2 77.3 29.6 111L0 480l117.7-30.9c32.4 17.7 68.9 27 106.1 27h.1c122.3 0 224.1-99.6 224.1-222 0-59.3-25.2-115-67.1-157zm-157 341.6c-33.2 0-65.7-8.9-94-25.7l-6.7-4-69.8 18.3L72 359.2l-4.4-7c-18.5-29.4-28.2-63.3-28.2-98.2 0-101.7 82.8-184.5 184.6-184.5 49.3 0 95.6 19.2 130.4 54.1 34.8 34.9 56.2 81.2 56.1 130.5 0 101.8-84.9 184.6-186.6 184.6zm101.2-138.2c-5.5-2.8-32.8-16.2-37.9-18-5.1-1.9-8.8-2.8-12.5 2.8-3.7 5.6-14.3 18-17.6 21.8-3.2 3.7-6.5 4.2-12 1.4-32.6-16.3-54-29.1-75.5-66-5.7-9.8 5.7-9.1 16.3-30.3 1.8-3.7.9-6.9-.5-9.7-1.4-2.8-12.5-30.1-17.1-41.2-4.5-10.8-9.1-9.3-12.5-9.5-3.2-.2-6.9-.2-10.6-.2-3.7 0-9.7 1.4-14.8 6.9-5.1 5.6-19.4 19-19.4 46.3 0 27.3 19.9 53.7 22.6 57.4 2.8 3.7 39.1 59.7 94.8 83.8 35.2 15.2 49 16.5 66.6 13.9 10.7-1.6 32.8-13.4 37.4-26.4 4.6-13 4.6-24.1 3.2-26.4-1.3-2.5-5-3.9-10.5-6.6z"/>
    </svg>
    <svg viewBox="0 0 448 512" id="icon_instagram" class="icon">
        <path d="M224.1 141c-63.6 0-114.9 51.3-114.9 114.9s51.3 114.9 114.9 114.9S339 319.5 339 255.9 287.7 141 224.1 141zm0 189.6c-41.1 0-74.7-33.5-74.7-74.7s33.5-74.7 74.7-74.7 74.7 33.5 74.7 74.7-33.6 74.7-74.7 74.7zm146.4-194.3c0 14.9-12 26.8-26.8 26.8-14.9 0-26.8-12-26.8-26.8s12-26.8 26.8-26.8 26.8 12 26.8 26.8zm76.1 27.2c-1.7-35.9-9.9-67.7-36.2-93.9-26.2-26.2-58-34.4-93.9-36.2-37-2.1-147.9-2.1-184.9 0-35.8 1.7-67.6 9.9-93.9 36.1s-34.4 58-36.2 93.9c-2.1 37-2.1 147.9 0 184.9 1.7 35.9 9.9 67.7 36.2 93.9s58 34.4 93.9 36.2c37 2.1 147.9 2.1 184.9 0 35.9-1.7 67.7-9.9 93.9-36.2 26.2-26.2 34.4-58 36.2-93.9 2.1-37 2.1-147.8 0-184.8zM398.8 388c-7.8 19.6-22.9 34.7-42.6 42.6-29.5 11.7-99.5 9-132.1 9s-102.7 2.6-132.1-9c-19.6-7.8-34.7-22.9-42.6-42.6-11.7-29.5-9-99.5-9-132.1s-2.6-102.7 9-132.1c7.8-19.6 22.9-34.7 42.6-42.6 29.5-11.7 99.5-9 132.1-9s102.7-2.6 132.1 9c19.6 7.8 34.7 22.9 42.6 42.6 11.7 29.5 9 99.5 9 132.1s2.7 102.7-9 132.1z"/>
    </svg>
    <svg viewBox="0 0 320 512" id="icon_facebook" class="icon">
        <path d="M279.14 288l14.22-92.66h-88.91v-60.13c0-25.35 12.42-50.06 52.24-50.06h40.42V6.26S260.43 0 225.36 0c-73.22 0-121.08 44.38-121.08 124.72v70.62H22.89V288h81.39v224h100.17V288z"/>
    </svg>
    <svg viewBox="0 0 512 512" id="icon_facebook-round" class="icon">
        <path d="M504 256C504 119 393 8 256 8S8 119 8 256c0 123.78 90.69 226.38 209.25 245V327.69h-63V256h63v-54.64c0-62.15 37-96.48 93.67-96.48 27.14 0 55.52 4.84 55.52 4.84v61h-31.28c-30.8 0-40.41 19.12-40.41 38.73V256h68.78l-11 71.69h-57.78V501C413.31 482.38 504 379.78 504 256z"/>
    </svg>
    <svg viewBox="0 0 488 512" id="icon_google" class="icon">
        <path d="M488 261.8C488 403.3 391.1 504 248 504 110.8 504 0 393.2 0 256S110.8 8 248 8c66.8 0 123 24.5 166.3 64.9l-67.5 64.9C258.5 52.6 94.3 116.6 94.3 256c0 86.5 69.1 156.6 153.7 156.6 98.2 0 135-70.4 140.8-106.9H248v-85.3h236.1c2.3 12.7 3.9 24.9 3.9 41.4z"/>
    </svg>
    <svg viewBox="0 0 384 512" id="icon_location-dot" class="icon">
        <path d="M168.3 499.2C116.1 435 0 279.4 0 192C0 85.96 85.96 0 192 0C298 0 384 85.96 384 192C384 279.4 267 435 215.7 499.2C203.4 514.5 180.6 514.5 168.3 499.2H168.3zM192 256C227.3 256 256 227.3 256 192C256 156.7 227.3 128 192 128C156.7 128 128 156.7 128 192C128 227.3 156.7 256 192 256z"/>
    </svg>
    <svg viewBox="0 0 512 512" id="icon_waze" class="icon">
        <path d="M502.17 201.67C516.69 287.53 471.23 369.59 389 409.8c13 34.1-12.4 70.2-48.32 70.2a51.68 51.68 0 0 1-51.57-49c-6.44.19-64.2 0-76.33-.64A51.69 51.69 0 0 1 159 479.92c-33.86-1.36-57.95-34.84-47-67.92-37.21-13.11-72.54-34.87-99.62-70.8-13-17.28-.48-41.8 20.84-41.8 46.31 0 32.22-54.17 43.15-110.26C94.8 95.2 193.12 32 288.09 32c102.48 0 197.15 70.67 214.08 169.67zM373.51 388.28c42-19.18 81.33-56.71 96.29-102.14 40.48-123.09-64.15-228-181.71-228-83.45 0-170.32 55.42-186.07 136-9.53 48.91 5 131.35-68.75 131.35C58.21 358.6 91.6 378.11 127 389.54c24.66-21.8 63.87-15.47 79.83 14.34 14.22 1 79.19 1.18 87.9.82a51.69 51.69 0 0 1 78.78-16.42zM205.12 187.13c0-34.74 50.84-34.75 50.84 0s-50.84 34.74-50.84 0zm116.57 0c0-34.74 50.86-34.75 50.86 0s-50.86 34.75-50.86 0zm-122.61 70.69c-3.44-16.94 22.18-22.18 25.62-5.21l.06.28c4.14 21.42 29.85 44 64.12 43.07 35.68-.94 59.25-22.21 64.11-42.77 4.46-16.05 28.6-10.36 25.47 6-5.23 22.18-31.21 62-91.46 62.9-42.55 0-80.88-27.84-87.9-64.25z"/>
    </svg>
    <svg viewBox="0 0 24 24" id="icon_credit_card" class="icon">
        <path fill-rule="evenodd" clip-rule="evenodd" d="M20 4C21.6569 4 23 5.34315 23 7V17C23 18.6569 21.6569 20 20 20H4C2.34315 20 1 18.6569 1 17V7C1 5.34315 2.34315 4 4 4H20ZM20 6C20.5523 6 21 6.44772 21 7V9H3V7C3 6.44771 3.44772 6 4 6H20ZM3 11V17C3 17.5523 3.44772 18 4 18H20C20.5523 18 21 17.5523 21 17V11H3Z" fill="#0F0F0F"/>
    </svg>
    <svg viewBox="0 0 24 24" id="icon_log-in" class="icon">
        <path fill-rule="evenodd" clip-rule="evenodd" d="M20 23L12 23C11.4477 23 11 22.5523 11 22C11 21.4477 11.4477 21 12 21L20 21C20.5523 21 21 20.5523 21 20L21 4C21 3.44771 20.5523 3 20 3L12 3C11.4477 3 11 2.55228 11 2C11 1.44772 11.4477 1 12 1L20 0.999999C21.6569 0.999999 23 2.34315 23 4L23 20C23 21.6569 21.6569 23 20 23Z" fill="#0F0F0F"/>
        <path fill-rule="evenodd" clip-rule="evenodd" d="M18.6881 10.6901C19.3396 11.4418 19.3396 12.5581 18.6881 13.3098L14.5114 18.1291C13.2988 19.5282 11 18.6707 11 16.8193L11 15L5 15C3.89543 15 3 14.1046 3 13L3 11C3 9.89541 3.89543 8.99998 5 8.99998L11 8.99998L11 7.18071C11 5.3293 13.2988 4.47176 14.5114 5.87085L18.6881 10.6901ZM16.6091 12.6549C16.9348 12.279 16.9348 11.7209 16.6091 11.345L13 7.18071L13 9.49998C13 10.3284 12.3284 11 11.5 11L5 11L5 13L11.5 13C12.3284 13 13 13.6716 13 14.5L13 16.8193L16.6091 12.6549Z" fill="#0F0F0F"/>
    </svg>
        <svg viewBox="0 0 24 24" id="icon_log-out" class="icon">
        <path fill-rule="evenodd" clip-rule="evenodd" d="M19 23H11C10.4477 23 10 22.5523 10 22C10 21.4477 10.4477 21 11 21H19C19.5523 21 20 20.5523 20 20V4C20 3.44772 19.5523 3 19 3L11 3C10.4477 3 10 2.55229 10 2C10 1.44772 10.4477 1 11 1L19 1C20.6569 1 22 2.34315 22 4V20C22 21.6569 20.6569 23 19 23Z" fill="#0F0F0F"/>
        <path fill-rule="evenodd" clip-rule="evenodd" d="M2.48861 13.3099C1.83712 12.5581 1.83712 11.4419 2.48862 10.6902L6.66532 5.87088C7.87786 4.47179 10.1767 5.32933 10.1767 7.18074L10.1767 9.00001H16.1767C17.2813 9.00001 18.1767 9.89544 18.1767 11V13C18.1767 14.1046 17.2813 15 16.1767 15L10.1767 15V16.8193C10.1767 18.6707 7.87786 19.5282 6.66532 18.1291L2.48861 13.3099ZM4.5676 11.3451C4.24185 11.7209 4.24185 12.2791 4.5676 12.6549L8.1767 16.8193V14.5C8.1767 13.6716 8.84827 13 9.6767 13L16.1767 13V11L9.6767 11C8.84827 11 8.1767 10.3284 8.1767 9.50001L8.1767 7.18074L4.5676 11.3451Z" fill="#0F0F0F"/>
    </svg>
    <svg viewBox="0 0 24 24" id="icon_menu" class="icon">
        <path d="M1 12C1 11.4477 1.44772 11 2 11H22C22.5523 11 23 11.4477 23 12C23 12.5523 22.5523 13 22 13H2C1.44772 13 1 12.5523 1 12Z" fill="#0F0F0F"/>
        <path d="M1 4C1 3.44772 1.44772 3 2 3H22C22.5523 3 23 3.44772 23 4C23 4.55228 22.5523 5 22 5H2C1.44772 5 1 4.55228 1 4Z" fill="#0F0F0F"/>
        <path d="M1 20C1 19.4477 1.44772 19 2 19H22C22.5523 19 23 19.4477 23 20C23 20.5523 22.5523 21 22 21H2C1.44772 21 1 20.5523 1 20Z" fill="#0F0F0F"/>
    </svg>
    <svg viewBox="0 0 24 24" id="icon_cutlery" class="icon">
        <path fill-rule="evenodd" clip-rule="evenodd" d="M1.73306 1.03631C2.08026 0.94014 2.45235 1.03817 2.7071 1.29292L22.7071 21.2929C23.0976 21.6834 23.0976 22.3166 22.7071 22.7071C22.3166 23.0977 21.6834 23.0977 21.2929 22.7071L14 15.4142L12.9142 16.5C12.1341 17.2802 10.8684 17.2827 10.0865 16.5007L3.29296 9.70718C1.58311 7.99734 1.01881 6.00221 0.879106 4.46556C0.809325 3.698 0.844063 3.03552 0.896734 2.56147C0.926579 2.29285 0.964429 2.02212 1.02938 1.75935C1.11559 1.41264 1.38869 1.13169 1.73306 1.03631ZM2.87096 4.2852C2.98137 5.49843 3.41721 7.00301 4.70713 8.29291L11.5 15.0858L12.5858 14L2.87096 4.2852Z" fill="#0F0F0F"/>
        <path d="M18.2071 1.79292C18.5976 2.18344 18.5976 2.81661 18.2071 3.20713L15.3113 6.10295C14.955 6.45919 14.9505 6.97388 15.1985 7.38727L18.7929 3.79292C19.1834 3.40239 19.8166 3.40239 20.2071 3.79292C20.5976 4.18344 20.5976 4.81661 20.2071 5.20713L16.6128 8.80148C17.0261 9.04952 17.5408 9.04498 17.8971 8.68873L20.7929 5.79292C21.1834 5.40239 21.8166 5.40239 22.2071 5.79292C22.5976 6.18344 22.5976 6.81661 22.2071 7.20713L19.3113 10.1029C18.3379 11.0764 16.8269 11.2624 15.6465 10.5541L15.155 10.2592L14.7071 10.7071C14.3166 11.0977 13.6834 11.0977 13.2929 10.7071C12.9024 10.3166 12.9024 9.68344 13.2929 9.29292L13.7408 8.84501L13.4459 8.35354C12.7377 7.17311 12.9237 5.66214 13.8971 4.68873L16.7929 1.79292C17.1834 1.40239 17.8166 1.40239 18.2071 1.79292Z" fill="#0F0F0F"/>
        <path d="M8.20711 17.2071C8.59763 16.8166 8.59763 16.1834 8.20711 15.7929C7.81659 15.4024 7.18342 15.4024 6.7929 15.7929L1.2929 21.2929C0.902372 21.6834 0.902372 22.3166 1.2929 22.7071C1.68342 23.0977 2.31659 23.0977 2.70711 22.7071L8.20711 17.2071Z" fill="#0F0F0F"/>
    </svg>
    <svg viewBox="0 0 24 24" id="icon_paste" class="icon">
        <path fill-rule="evenodd" clip-rule="evenodd" d="M12 0C11.2347 0 10.6293 0.125708 10.1567 0.359214C9.9845 0.44429 9.82065 0.544674 9.68861 0.62717L9.59036 0.688808C9.49144 0.751003 9.4082 0.803334 9.32081 0.853848C9.09464 0.984584 9.00895 0.998492 9.00053 0.999859C8.99983 0.999973 9.00019 0.999859 9.00053 0.999859C7.89596 0.999859 7 1.89543 7 3H6C4.34315 3 3 4.34315 3 6V20C3 21.6569 4.34315 23 6 23H18C19.6569 23 21 21.6569 21 20V6C21 4.34315 19.6569 3 18 3H17C17 1.89543 16.1046 1 15 1C15.0003 1 15.0007 1.00011 15 1C14.9916 0.998633 14.9054 0.984584 14.6792 0.853848C14.5918 0.80333 14.5086 0.751004 14.4096 0.688804L14.3114 0.62717C14.1793 0.544674 14.0155 0.44429 13.8433 0.359214C13.3707 0.125708 12.7653 0 12 0ZM16.7324 5C16.3866 5.5978 15.7403 6 15 6H9C8.25972 6 7.61337 5.5978 7.26756 5H6C5.44772 5 5 5.44772 5 6V20C5 20.5523 5.44772 21 6 21H18C18.5523 21 19 20.5523 19 20V6C19 5.44772 18.5523 5 18 5H16.7324ZM11.0426 2.15229C11.1626 2.09301 11.4425 2 12 2C12.5575 2 12.8374 2.09301 12.9574 2.15229C13.0328 2.18953 13.1236 2.24334 13.2516 2.32333L13.3261 2.37008C13.43 2.43542 13.5553 2.51428 13.6783 2.58539C13.9712 2.75469 14.4433 3 15 3V4H9V3C9.55666 3 10.0288 2.75469 10.3217 2.58539C10.4447 2.51428 10.57 2.43543 10.6739 2.37008L10.7484 2.32333C10.8764 2.24334 10.9672 2.18953 11.0426 2.15229Z" fill="#0F0F0F"/>
    </svg>
    <svg viewBox="0 0 24 24" id="icon_shop" class="icon">
        <path fill-rule="evenodd" clip-rule="evenodd" d="M5.13238 1C4.07859 1 3.10207 1.5529 2.5599 2.45651L0.615776 5.69672C0.17816 6.42608 0.0121122 7.42549 0.508798 8.32014C0.789678 8.82607 1.27459 9.55181 2 10.1205V20C2 21.6569 3.34315 23 5 23H8C9.10457 23 10 22.1046 10 21V15H14V21C14 22.1046 14.8954 23 16 23H19C20.6569 23 22 21.6569 22 20V10.1205C22.7254 9.55181 23.2103 8.82607 23.4912 8.32014C23.9879 7.42548 23.8218 6.42608 23.3842 5.69672L21.4401 2.45651C20.8979 1.5529 19.9214 1 18.8676 1H5.13238ZM20 10.9697C19.8391 10.9895 19.6725 11 19.5 11C18.1259 11 17.1126 10.3216 16.4364 9.60481C16.2632 9.4211 16.1082 9.23119 15.9705 9.04325C15.2167 9.98812 13.9542 11 12 11C10.0458 11 8.7833 9.98812 8.02952 9.04325C7.89183 9.23119 7.73684 9.4211 7.56355 9.60481C6.8874 10.3216 5.87405 11 4.5 11C4.32752 11 4.16089 10.9895 4 10.9697V20C4 20.5523 4.44772 21 5 21H8V15C8 13.8954 8.89543 13 10 13H14C15.1046 13 16 13.8954 16 15V21H19C19.5523 21 20 20.5523 20 20V10.9697ZM4.27489 3.4855C4.45561 3.1843 4.78112 3 5.13238 3H18.8676C19.2189 3 19.5444 3.1843 19.7251 3.4855L21.6692 6.72571C21.8324 6.99765 21.8127 7.2231 21.7426 7.34937C21.2851 8.17345 20.5493 9 19.5 9C18.8448 9 18.323 8.69006 17.8913 8.23245C17.4506 7.76524 17.1659 7.20393 17.0284 6.88399C16.8114 6.37951 16.3329 6.21388 16.0033 6.21248C15.674 6.21109 15.1982 6.37172 14.9752 6.8683C14.6702 7.54754 13.7982 9 12 9C10.2018 9 9.32978 7.54754 9.0248 6.8683C8.80182 6.37172 8.32598 6.21109 7.99667 6.21248C7.66706 6.21388 7.18855 6.37951 6.97164 6.88399C6.83407 7.20393 6.5494 7.76524 6.10869 8.23245C5.67703 8.69006 5.15524 9 4.5 9C3.45065 9 2.71491 8.17345 2.2574 7.34937C2.1873 7.2231 2.1676 6.99765 2.33076 6.72571L4.27489 3.4855Z" fill="#0F0F0F"/>
    </svg>
    <svg viewBox="0 0 24 24" id="icon_refresh" class="icon">
        <path d="M4.52186 7H7C7.55229 7 8 7.44771 8 8C8 8.55228 7.55228 9 7 9H3C1.89543 9 1 8.10457 1 7V3C1 2.44771 1.44772 2 2 2C2.55228 2 3 2.44771 3 3V5.67541C4.1421 4.05017 5.70859 2.75709 7.53982 1.94481C9.78743 0.947842 12.3043 0.732653 14.6885 1.3336C17.0727 1.93454 19.1868 3.31697 20.6934 5.26017C21.9949 6.939 22.7781 8.95275 22.9594 11.0552C23.0068 11.6054 22.5477 12.0518 21.9954 12.0491C21.4432 12.0464 20.999 11.5951 20.9404 11.0459C20.764 9.39335 20.132 7.81481 19.1057 6.49104C17.8743 4.90272 16.1463 3.77276 14.1975 3.28156C12.2487 2.79036 10.1915 2.96625 8.35437 3.78115C6.82323 4.46031 5.51853 5.55071 4.57994 6.92229C4.56157 6.94914 4.54218 6.97505 4.52186 7Z" fill="#0F0F0F"/>
        <path d="M21 18.3246C19.8579 19.9498 18.2914 21.2429 16.4602 22.0552C14.2126 23.0522 11.6957 23.2673 9.31152 22.6664C6.9273 22.0654 4.81316 20.683 3.30663 18.7398C2.00506 17.061 1.22186 15.0472 1.04064 12.9448C0.993209 12.3946 1.45229 11.9482 2.00456 11.9509C2.55684 11.9536 3.00103 12.4049 3.05963 12.954C3.23597 14.6066 3.86797 16.1852 4.89426 17.509C6.12566 19.0973 7.85371 20.2272 9.80251 20.7184C11.7513 21.2096 13.8085 21.0337 15.6456 20.2188C17.1768 19.5397 18.4815 18.4493 19.4201 17.0777C19.4384 17.0509 19.4578 17.0249 19.4781 17H17C16.4477 17 16 16.5523 16 16C16 15.4477 16.4477 15 17 15H21C22.1046 15 23 15.8954 23 17V21C23 21.5523 22.5523 22 22 22C21.4477 22 21 21.5523 21 21V18.3246Z" fill="#0F0F0F"/>
    </svg>
    <svg viewBox="0 0 24 24" id="icon_dollar" class="icon">
        <path fill-rule="evenodd" clip-rule="evenodd" d="M12 1C11.4477 1 11 1.44772 11 2V3H10C8.3642 3 7.0588 3.60369 6.1691 4.57428C5.29413 5.52878 4.875 6.77845 4.875 8C4.875 9.22155 5.29413 10.4712 6.1691 11.4257C6.33335 11.6049 6.51177 11.7716 6.70382 11.9243C7.55205 12.5986 8.6662 13 10 13H11V19H10C9.17499 19 8.62271 18.7966 8.2422 18.5429C7.85544 18.2851 7.58511 17.9342 7.39443 17.5528C7.20178 17.1675 7.10048 16.7701 7.04889 16.4606C7.02329 16.307 7.00411 16.1512 6.99999 15.9953C6.99736 15.4454 6.55059 15 6 15C5.44771 15 5 15.4477 5 16C5.00003 16.0672 5.0024 16.1317 5.01035 16.2431C5.02006 16.3791 5.039 16.5668 5.07611 16.7894C5.14952 17.2299 5.29821 17.8325 5.60557 18.4472C5.91489 19.0658 6.39456 19.7149 7.1328 20.2071C7.8773 20.7034 8.82502 21 10 21H11V22C11 22.5523 11.4477 23 12 23C12.5523 23 13 22.5523 13 22V21H14C15.6358 21 16.9412 20.3963 17.8309 19.4257C18.7059 18.4712 19.125 17.2216 19.125 16C19.125 14.7784 18.7059 13.5288 17.8309 12.5743C16.9412 11.6037 15.6358 11 14 11H13V5H14C14.825 5 15.3773 5.20338 15.7578 5.45705C16.1446 5.71489 16.4149 6.06584 16.6056 6.44721C16.7982 6.8325 16.8995 7.22989 16.9511 7.5394C16.9767 7.69303 16.9959 7.84879 17 8.00465C17.0027 8.55467 17.4494 9 18 9C18.5458 9 19 8.54436 19 7.99898C18.9999 7.93212 18.9976 7.8677 18.9896 7.75688C18.9799 7.62092 18.961 7.43322 18.9239 7.2106C18.8505 6.77011 18.7018 6.1675 18.3944 5.55279C18.0851 4.93416 17.6054 4.28511 16.8672 3.79295C16.1227 3.29662 15.175 3 14 3H13V2C13 1.44772 12.5523 1 12 1ZM11 5H10C8.8858 5 8.1287 5.39631 7.6434 5.92572C7.14337 6.47122 6.875 7.22155 6.875 8C6.875 8.77845 7.14337 9.52878 7.6434 10.0743C8.1287 10.6037 8.8858 11 10 11H11V5ZM13 13V19H14C15.1142 19 15.8713 18.6037 16.3566 18.0743C16.8566 17.5288 17.125 16.7784 17.125 16C17.125 15.2216 16.8566 14.4712 16.3566 13.9257C15.8713 13.3963 15.1142 13 14 13H13Z" fill="#0F0F0F"/>
    </svg>
    <svg viewBox="0 0 24 24" id="icon_full-screen" class="icon">
        <path d="M23 4C23 2.34315 21.6569 1 20 1H16C15.4477 1 15 1.44772 15 2C15 2.55228 15.4477 3 16 3H20C20.5523 3 21 3.44772 21 4V8C21 8.55228 21.4477 9 22 9C22.5523 9 23 8.55228 23 8V4Z" fill="#0F0F0F"/>
        <path d="M23 16C23 15.4477 22.5523 15 22 15C21.4477 15 21 15.4477 21 16V20C21 20.5523 20.5523 21 20 21H16C15.4477 21 15 21.4477 15 22C15 22.5523 15.4477 23 16 23H20C21.6569 23 23 21.6569 23 20V16Z" fill="#0F0F0F"/>
        <path d="M4 21H8C8.55228 21 9 21.4477 9 22C9 22.5523 8.55228 23 8 23H4C2.34315 23 1 21.6569 1 20V16C1 15.4477 1.44772 15 2 15C2.55228 15 3 15.4477 3 16V20C3 20.5523 3.44772 21 4 21Z" fill="#0F0F0F"/>
        <path d="M1 8C1 8.55228 1.44772 9 2 9C2.55228 9 3 8.55228 3 8L3 4C3 3.44772 3.44772 3 4 3H8C8.55228 3 9 2.55228 9 2C9 1.44772 8.55228 1 8 1H4C2.34315 1 1 2.34315 1 4V8Z" fill="#0F0F0F"/>
    </svg>
    <svg viewBox="0 0 24 24" id="icon_settings" class="icon">
        <path fill-rule="evenodd" clip-rule="evenodd" d="M3.59938 6.22413C3.362 4.82033 4.68002 3.64638 6.07306 4.02084L7.12777 4.30435C7.96485 4.52937 8.85305 4.19092 9.31887 3.46943L10.3298 1.90368C11.1077 0.698775 12.8923 0.698773 13.6702 1.90368L14.6811 3.46943C15.1469 4.19092 16.0351 4.52937 16.8722 4.30435L17.9269 4.02084C19.32 3.64638 20.638 4.82033 20.4006 6.22413L20.1405 7.76265C20.0068 8.55335 20.3773 9.3442 21.0747 9.75663L22.0388 10.3268C23.3204 11.0847 23.3204 12.9153 22.0388 13.6732L21.0747 14.2434C20.3773 14.6558 20.0068 15.4467 20.1405 16.2374L20.4006 17.7759C20.638 19.1797 19.32 20.3536 17.9269 19.9792L16.8722 19.6957C16.0351 19.4706 15.1469 19.8091 14.6811 20.5306L13.6702 22.0963C12.8923 23.3012 11.1077 23.3012 10.3298 22.0963L9.31887 20.5306C8.85305 19.8091 7.96485 19.4706 7.12777 19.6957L6.07306 19.9792C4.68002 20.3536 3.362 19.1797 3.59938 17.7759L3.85954 16.2374C3.99324 15.4467 3.62271 14.6558 2.92531 14.2434L1.96116 13.6732C0.679612 12.9153 0.679614 11.0847 1.96116 10.3268L2.92531 9.75663C3.62271 9.3442 3.99324 8.55335 3.85954 7.76265L3.59938 6.22413ZM9.03042 6.14621H6.06085V9.0731L3.09127 12L6.06085 14.9269V17.8538H9.03042L12 20.7807L14.9696 17.8538H17.9392V14.9269L20.9087 12L17.9392 9.0731V6.14621H14.9696L12 3.21931L9.03042 6.14621Z" fill="#0F0F0F"/>
        <path d="M16.4515 12C16.4515 14.4247 14.4572 16.3903 11.9971 16.3903C9.53706 16.3903 7.54277 14.4247 7.54277 12C7.54277 9.57528 9.53706 7.60965 11.9971 7.60965C14.4572 7.60965 16.4515 9.57528 16.4515 12ZM9.51963 12C9.51963 13.3486 10.6288 14.4419 11.9971 14.4419C13.3654 14.4419 14.4746 13.3486 14.4746 12C14.4746 10.6514 13.3654 9.5581 11.9971 9.5581C10.6288 9.5581 9.51963 10.6514 9.51963 12Z" fill="#0F0F0F"/>
    </svg>
    <svg viewBox="0 0 24 24" id="icon_shopping-bag" class="icon">
        <path fill-rule="evenodd" clip-rule="evenodd" d="M16.5285 6C16.5098 5.9193 16.4904 5.83842 16.4701 5.75746C16.2061 4.70138 15.7904 3.55383 15.1125 2.65C14.4135 1.71802 13.3929 1 12 1C10.6071 1 9.58648 1.71802 8.88749 2.65C8.20962 3.55383 7.79387 4.70138 7.52985 5.75747C7.50961 5.83842 7.49016 5.9193 7.47145 6H5.8711C4.29171 6 2.98281 7.22455 2.87775 8.80044L2.14441 19.8004C2.02898 21.532 3.40238 23 5.13777 23H18.8622C20.5976 23 21.971 21.532 21.8556 19.8004L21.1222 8.80044C21.0172 7.22455 19.7083 6 18.1289 6H16.5285ZM8 11C8.57298 11 8.99806 10.5684 9.00001 9.99817C9.00016 9.97438 9.00044 9.9506 9.00084 9.92682C9.00172 9.87413 9.00351 9.79455 9.00718 9.69194C9.01451 9.48652 9.0293 9.18999 9.05905 8.83304C9.08015 8.57976 9.10858 8.29862 9.14674 8H14.8533C14.8914 8.29862 14.9198 8.57976 14.941 8.83305C14.9707 9.18999 14.9855 9.48652 14.9928 9.69194C14.9965 9.79455 14.9983 9.87413 14.9992 9.92682C14.9996 9.95134 14.9999 9.97587 15 10.0004C15 10.0004 15 11 16 11C17 11 17 9.99866 17 9.99866C16.9999 9.9636 16.9995 9.92854 16.9989 9.89349C16.9978 9.829 16.9957 9.7367 16.9915 9.62056C16.9833 9.38848 16.9668 9.06001 16.934 8.66695C16.917 8.46202 16.8953 8.23812 16.8679 8H18.1289C18.6554 8 19.0917 8.40818 19.1267 8.93348L19.86 19.9335C19.8985 20.5107 19.4407 21 18.8622 21H5.13777C4.55931 21 4.10151 20.5107 4.13998 19.9335L4.87332 8.93348C4.90834 8.40818 5.34464 8 5.8711 8H7.13208C7.10465 8.23812 7.08303 8.46202 7.06595 8.66696C7.0332 9.06001 7.01674 9.38848 7.00845 9.62056C7.0043 9.7367 7.00219 9.829 7.00112 9.89349C7.00054 9.92785 7.00011 9.96221 7 9.99658C6.99924 10.5672 7.42833 11 8 11ZM9.53352 6H14.4665C14.2353 5.15322 13.921 4.39466 13.5125 3.85C13.0865 3.28198 12.6071 3 12 3C11.3929 3 10.9135 3.28198 10.4875 3.85C10.079 4.39466 9.76472 5.15322 9.53352 6Z" fill="#0F0F0F"/>
    </svg>
    <svg viewBox="0 0 24 24" id="icon_coins" class="icon">
        <path fill-rule="evenodd" clip-rule="evenodd" d="M8 1C11.866 1 15 2.56689 15 4.5V6C15 6.55228 14.5523 7 14 7H13C11.7295 7.64819 9.95868 8 8 8C6.04132 8 4.27051 7.64819 3 7V8.5C3 9.22569 4.71803 9.83109 7.00053 9.97002C7.55179 10.0036 8 10.4477 8 11C8 11.5523 7.55166 12.0038 7.0005 11.9686C5.44274 11.8692 4.05039 11.5359 3 11V12.5C3 13.2257 4.71803 13.8311 7.00053 13.97C7.55179 14.0036 8 14.4477 8 15C8 15.5523 7.55132 16.004 7.00044 15.9646C3.60793 15.7221 1 14.2634 1 12.5V4.5C1 2.56689 4.134 1 8 1ZM3 4.5C3 3.67163 5.23859 3 8 3C10.7614 3 13 3.67163 13 4.5C13 5.32837 10.7614 6 8 6C5.23859 6 3 5.32837 3 4.5Z" fill="#0F0F0F"/>
        <path fill-rule="evenodd" clip-rule="evenodd" d="M23 11.5C23 9.567 19.866 8 16 8C12.134 8 9 9.567 9 11.5V19.5C9 21.433 12.134 23 16 23C19.866 23 23 21.433 23 19.5V11.5ZM11 19.5C11 20.3284 13.2386 21 16 21C18.7614 21 21 20.3284 21 19.5V18C19.7295 18.6483 17.9587 19 16 19C14.0413 19 12.2705 18.6483 11 18V19.5ZM16 17C13.2386 17 11 16.3284 11 15.5V14C12.2705 14.6483 14.0413 15 16 15C17.9587 15 19.7295 14.6483 21 14V15.5C21 16.3284 18.7614 17 16 17ZM16 10C13.2386 10 11 10.6716 11 11.5C11 12.3284 13.2386 13 16 13C18.7614 13 21 12.3284 21 11.5C21 10.6716 18.7614 10 16 10Z" fill="#0F0F0F"/>
    </svg>
    <svg viewBox="0 0 24 24" id="icon_switch" class="icon">
        <path d="M18.7153 1.71609C18.3241 1.32351 18.3241 0.687013 18.7153 0.294434C19.1066 -0.0981448 19.7409 -0.0981448 20.1321 0.294434L22.4038 2.57397L22.417 2.58733C23.1935 3.37241 23.1917 4.64056 22.4116 5.42342L20.1371 7.70575C19.7461 8.09808 19.1122 8.09808 18.7213 7.70575C18.3303 7.31342 18.3303 6.67733 18.7213 6.285L20.0018 5L4.99998 5C4.4477 5 3.99998 5.44772 3.99998 6V13C3.99998 13.5523 3.55227 14 2.99998 14C2.4477 14 1.99998 13.5523 1.99998 13V6C1.99998 4.34315 3.34313 3 4.99998 3H19.9948L18.7153 1.71609Z" fill="#0F0F0F"/>
        <path d="M22 11C22 10.4477 21.5523 10 21 10C20.4477 10 20 10.4477 20 11V18C20 18.5523 19.5523 19 19 19L4.00264 19L5.28213 17.7161C5.67335 17.3235 5.67335 16.687 5.28212 16.2944C4.8909 15.9019 4.2566 15.9019 3.86537 16.2944L1.59369 18.574L1.58051 18.5873C0.803938 19.3724 0.805727 20.6406 1.58588 21.4234L3.86035 23.7058C4.25133 24.0981 4.88523 24.0981 5.2762 23.7058C5.66718 23.3134 5.66718 22.6773 5.2762 22.285L3.99563 21L19 21C20.6568 21 22 19.6569 22 18L22 11Z" fill="#0F0F0F"/>
    </svg>
    <svg viewBox="0 0 24 24" id="icon_text" class="icon">
        <path fill-rule="evenodd" clip-rule="evenodd" d="M2 4C2 2.89543 2.89543 2 4 2H20C21.1046 2 22 2.89543 22 4V7C22 7.55229 21.5523 8 21 8C20.4477 8 20 7.55229 20 7V5C20 4.44772 19.5523 4 19 4H13V20H17C17.5523 20 18 20.4477 18 21C18 21.5523 17.5523 22 17 22H7C6.44772 22 6 21.5523 6 21C6 20.4477 6.44772 20 7 20H11V4H5C4.44772 4 4 4.44772 4 5V7C4 7.55229 3.55228 8 3 8C2.44772 8 2 7.55229 2 7V4Z" fill="#0F0F0F"/>
    </svg>
    <svg viewBox="0 0 24 24" id="icon_trash" class="icon">
        <path d="M9 11C9 10.4477 9.44771 10 10 10C10.5523 10 11 10.4477 11 11V17C11 17.5523 10.5523 18 10 18C9.44771 18 9 17.5523 9 17V11Z" fill="#0F0F0F"/>
        <path d="M14 10C13.4477 10 13 10.4477 13 11V17C13 17.5523 13.4477 18 14 18C14.5523 18 15 17.5523 15 17V11C15 10.4477 14.5523 10 14 10Z" fill="#0F0F0F"/>
        <path fill-rule="evenodd" clip-rule="evenodd" d="M8.53113 1C5.52364 1 3.19671 3.63591 3.56974 6.62017L5.28873 20.3721C5.47639 21.8734 6.7526 23 8.26557 23H15.7344C17.2474 23 18.5236 21.8734 18.7113 20.3721L20.4303 6.62017C20.8033 3.63591 18.4764 1 15.4689 1H8.53113ZM5.70148 5C6.11066 3.8455 7.21175 3 8.53113 3H15.4689C16.7883 3 17.8893 3.8455 18.2985 5H5.70148ZM5.63279 7L7.27329 20.124C7.33584 20.6245 7.76124 21 8.26557 21H15.7344C16.2388 21 16.6642 20.6245 16.7267 20.124L18.3672 7H5.63279Z" fill="#0F0F0F"/>
    </svg>
    <svg viewBox="0 0 24 24" id="icon_unlock" class="icon">
        <path d="M13.5 16.5854C13.5 17.4138 12.8284 18.0854 12 18.0854C11.1716 18.0854 10.5 17.4138 10.5 16.5854C10.5 15.7569 11.1716 15.0854 12 15.0854C12.8284 15.0854 13.5 15.7569 13.5 16.5854Z" fill="#0F0F0F"/>
        <path fill-rule="evenodd" clip-rule="evenodd" d="M6.33367 10C6.20971 9.64407 6.09518 9.27081 5.99836 8.88671C5.69532 7.68444 5.54485 6.29432 5.89748 4.97439C6.26228 3.60888 7.14664 2.39739 8.74323 1.59523C10.3398 0.793061 11.8397 0.806642 13.153 1.32902C14.4225 1.83396 15.448 2.78443 16.2317 3.7452C16.4302 3.98851 16.6166 4.23669 16.7907 4.48449C17.0806 4.89706 16.9784 5.45918 16.5823 5.7713C16.112 6.14195 15.4266 6.01135 15.0768 5.52533C14.9514 5.35112 14.8197 5.17831 14.6819 5.0094C14.0088 4.18414 13.2423 3.51693 12.4138 3.18741C11.6292 2.87533 10.7252 2.83767 9.64112 3.38234C8.55703 3.92702 8.04765 4.6748 7.82971 5.49059C7.5996 6.35195 7.6774 7.36518 7.93771 8.39788C8.07953 8.96054 8.26936 9.50489 8.47135 10H18C19.6569 10 21 11.3431 21 13V20C21 21.6569 19.6569 23 18 23H6C4.34315 23 3 21.6569 3 20V13C3 11.3431 4.34315 10 6 10H6.33367ZM19 13C19 12.4477 18.5523 12 18 12H6C5.44772 12 5 12.4477 5 13V20C5 20.5523 5.44772 21 6 21H18C18.5523 21 19 20.5523 19 20V13Z" fill="#0F0F0F"/>
    </svg>
    <svg viewBox="0 0 24 24" id="icon_wheelchair" class="icon">
        <path fill-rule="evenodd" clip-rule="evenodd" d="M9 6.82954C10.1652 6.4177 11 5.30646 11 4.00024C11 2.34339 9.65686 1.00024 8 1.00024C6.34315 1.00024 5 2.34339 5 4.00024C5 5.30646 5.83481 6.4177 7 6.82954V12.0002C7 13.6571 8.34315 15.0002 10 15.0002H14.9296C15.264 15.0002 15.5762 15.1673 15.7617 15.4455L18.4913 19.54C19.1914 20.5901 20.6772 20.7373 21.5696 19.8448L22.7071 18.7074C23.0976 18.3168 23.0976 17.6837 22.7071 17.2931C22.3166 16.9026 21.6834 16.9026 21.2929 17.2931L20.1554 18.4306L17.4258 14.3361C16.8694 13.5015 15.9327 13.0002 14.9296 13.0002H10C9.44772 13.0002 9 12.5525 9 12.0002V11.0002H15C15.5523 11.0002 16 10.5525 16 10.0002C16 9.44796 15.5523 9.00025 15 9.00025H9V6.82954ZM8 5.10758C7.38844 5.10758 6.89267 4.61181 6.89267 4.00024C6.89267 3.38868 7.38844 2.89291 8 2.89291C8.61157 2.89291 9.10734 3.38868 9.10734 4.00024C9.10734 4.61181 8.61157 5.10758 8 5.10758Z" fill="#0F0F0F"/>
        <path d="M4.6328 9.07414C5.10517 8.78987 5.69738 9.0279 5.91645 9.53381C6.13552 10.0397 5.89604 10.6205 5.43795 10.9272C4.92993 11.2673 4.48018 11.6911 4.10882 12.1826C3.53598 12.9408 3.16922 13.8345 3.04425 14.7765C2.91928 15.7185 3.04036 16.6768 3.3957 17.5582C3.75103 18.4395 4.32852 19.2138 5.07194 19.8058C5.81535 20.3977 6.69937 20.787 7.63791 20.9359C8.57646 21.0847 9.53756 20.988 10.4276 20.6552C11.3177 20.3223 12.1065 19.7647 12.7171 19.0366C13.1129 18.5645 13.4251 18.0313 13.6428 17.46C13.8391 16.9448 14.3514 16.5813 14.8936 16.6815C15.4357 16.7816 15.8004 17.3054 15.6291 17.8295C15.3326 18.7372 14.8644 19.583 14.2468 20.3194C13.4147 21.3117 12.3399 22.0716 11.1269 22.5252C9.91394 22.9787 8.6042 23.1105 7.32518 22.9077C6.04617 22.7048 4.84148 22.1742 3.82838 21.3676C2.81528 20.561 2.02831 19.5058 1.54407 18.3047C1.05983 17.1037 0.894836 15.7977 1.06514 14.5139C1.23545 13.2302 1.73525 12.0124 2.51589 10.9791C3.09523 10.2123 3.81459 9.56654 4.6328 9.07414Z" fill="#0F0F0F"/>
    </svg>
</svg>